<svg style="position: absolute; width: 0; height: 0; overflow: hidden;" aria-hidden="true" version="1.1" xmlns="http://www.w3.org/2000/svg" xmlns:xlink="http://www.w3.org/1999/xlink">
    <style>
        .default-palette, .palette0 {color: currentColor;
            --color0: #2e2f42;
            --color1: #4d5ae5;
        }
    </style>
    <defs>
        <symbol id="check-mark" viewBox="0 0 10 8">
            <path d="M8.4456 0.2551C8.6184 0.0897 8.8483-18e-4 9.0869 0 9.3255 18e-4 9.5541 0.0968 9.7244 0.2648c0.1703 0.168 0.269 0.396 0.2753 0.6357 63e-4 0.2398-0.0803 0.4727-0.2415 0.6495L4.8636 7.7044c-0.0842 0.0911-0.1858 0.1642-0.2987 0.215S4.33 7.9975 4.2064 7.9998c-0.1237 23e-4-0.2466-0.0205-0.3613-0.067C3.7304 7.8863 3.6262 7.817 3.5387 7.729L0.2928 4.4656C0.2024 4.381 0.1299 4.2788 0.0796 4.1654 0.0294 4.0519 23e-4 3.9294 1e-4 3.8052S0.0207 3.5577 0.067 3.4425c0.0462-0.1152 0.1151-0.2198 0.2025-0.3077 0.0873-0.0878 0.1914-0.1571 0.306-0.2036s0.2372-0.0693 0.3608-0.0671 0.2453 0.0293 0.3582 0.0799c0.1128 0.0505 0.2144 0.1234 0.2987 0.2143l2.5687 2.5814 4.2604-5.4575c76e-4-95e-4 0.0158-0.0186 0.0245-0.0271z" />
        </symbol>
        <symbol id="send" viewBox="0 0 24 20">
            <path d="M24 0 0 11.25l7.6699 2.3672L19.5 4.375 10.5017 14.4913l73e-4 23e-4-9e-3-23e-4V20l4.3013-4.1817 5.4488 1.6817z" />
        </symbol>
        <symbol id="phone" viewBox="0 0 13 13">
            <path d="M11.7263 8.8651 9.8881 8.6553C9.4467 8.6046 9.0125 8.7566 8.7013 9.0678l-1.3316 1.3315c-2.048-1.0421-3.7269-2.7138-4.769-4.769l1.3388-1.3389C4.2507 3.9803 4.4026 3.5461 4.352 3.1046L4.1421 1.2809C4.0553 0.55 3.4401 0 2.702 0H1.45C0.6323 0-0.048 0.6803 27e-4 1.498 0.3862 7.6783 5.3289 12.6138 11.5019 12.9973c0.8178 0.0507 1.498-0.6296 1.498-1.4473v-1.252c73e-4-0.7309-0.5427-1.346-1.2736-1.4329z" />
        </symbol>
        <symbol id="person" viewBox="0 0 12 12">
            <path d="M6 6c1.6575 0 3-1.3425 3-3S7.6575 0 6 0 3 1.3425 3 3 4.3425 6 6 6zM6 7.5c-2.0025 0-6 1.005-6 3v0.75C0 11.6625 0.3375 12 0.75 12h10.5c0.4125 0 0.75-0.3375 0.75-0.75V10.5c0-1.995-3.9975-3-6-3z" />
        </symbol>
        <symbol id="email" viewBox="0 0 15 12">
            <path d="M13.5 0h-12C0.675 0 75e-4 0.675 75e-4 1.5L0 10.5C0 11.325 0.675 12 1.5 12h12c0.825 0 1.5-0.675 1.5-1.5v-9C15 0.675 14.325 0 13.5 0zM13.2 3.1875 7.8975 6.5025c-0.24 0.15-0.555 0.15-0.795 0L1.8 3.1875c-0.1875-0.12-0.3-0.3225-0.3-0.54 0-0.5025 0.5475-0.8025 0.975-0.54L7.5 5.25l5.025-3.1425C12.9525 1.845 13.5 2.145 13.5 2.6475c0 0.2175-0.1125 0.42-0.3 0.54z" />
        </symbol>
        <symbol id="close" viewBox="0 0 8 8">
            <path d="M8 0.8057 7.1943 0 4 3.1943 0.8057 0 0 0.8057 3.1943 4 0 7.1943 0.8057 8 4 4.8057 7.1943 8 8 7.1943 4.8057 4z" />
        </symbol>
        <symbol id="twitter" viewBox="0 0 16 16">
            <path d="M12.6 0.75h2.454l-5.36 6.142L16 15.25h-4.937l-3.867-5.07-4.425 5.07H0.316l5.733-6.57L0 0.75h5.063l3.495 4.633zM11.74 13.778h1.36L4.323 2.145H2.865z" />
            <defs>
                <clipPath id="clip0_1078804_83">
                    <rect width="16" height="16" />
                </clipPath>
            </defs>
        </symbol>
        <symbol id="linkedin" viewBox="0 0 16 16">
            <g clip-path="url(#clip0_1078804_83)">
                <path d="M15.996 16l4e-3-6e-4v-5.868c0-2.8707-0.618-5.082-3.974-5.082-1.6133 0-2.696 0.8853-3.138 1.7246l-0.0466 0 0-1.4566-3.182 0 0 10.682h3.3133V10.71c0-1.3926 0.264-2.7393 1.9887-2.7393 1.6993 0 1.7246 1.5893 1.7246 2.8287V16z" />
                <path d="M0.264 5.318l3.3174 0 0 10.682H0.264z" />
                <path d="M1.9214 0C0.8607 0 0 0.8607 0 1.9213s0.8607 1.9394 1.9214 1.9394 1.9213-0.8787 1.9213-1.9394C3.842 0.8607 2.9814 0 1.9214 0z" />
            </g>
        </symbol>
        <symbol id="instagram" viewBox="0 0 16 16">
            <g clip-path="url(#clip0_1078804_83)">
                <path d="M15.9843 4.704c-0.0375-0.8501-0.175-1.4346-0.3719-1.941-0.2032-0.5376-0.5157-1.0189-0.9252-1.419-0.4001-0.4063-0.8846-0.7221-1.4159-0.922-0.5094-0.197-1.0908-0.3345-1.941-0.3719C10.4738 94e-4 10.2019 0 8.0296 0 5.8573 0 5.5854 94e-4 4.7321 0.0469 3.882 0.0844 3.2975 0.222 2.7912 0.4188 2.2535 0.6219 1.7722 0.9345 1.3721 1.344 0.9658 1.7441 0.6501 2.2286 0.45 2.7599 0.2531 3.2694 0.1156 3.8507 0.0781 4.7009c-0.0406 0.8565-0.05 1.1284-0.05 3.3007 0 2.1723 94e-4 2.4442 0.0469 3.2975 0.0374 0.8501 0.175 1.4346 0.372 1.941 0.2031 0.5376 0.5188 1.0189 0.9251 1.419 0.4001 0.4063 0.8846 0.7221 1.4159 0.9221 0.5095 0.1969 1.0908 0.3344 1.9411 0.3719C5.5823 15.9907 5.8543 16 8.0266 16c2.1723 0 2.4442-93e-4 3.2975-0.0469 0.8501-0.0375 1.4346-0.175 1.9409-0.3719 1.0753-0.4158 1.9254-1.2659 2.3412-2.3411 0.1968-0.5095 0.3344-1.0909 0.3719-1.941 0.0375-0.8533 0.0469-1.1252 0.0469-3.2975 0-2.1723-32e-4-2.4442-0.0407-3.2976zM14.5435 11.2366c-0.0345 0.7814-0.1657 1.2033-0.2751 1.4846-0.2689 0.6971-0.8221 1.2503-1.5191 1.5191-0.2813 0.1094-0.7063 0.2407-1.4847 0.275-0.8439 0.0376-1.097 0.0469-3.2318 0.0469-2.1348 0-2.3911-93e-4-3.232-0.0469-0.7814-0.0343-1.2033-0.1656-1.4846-0.275-0.3469-0.1282-0.6626-0.3313-0.9189-0.597-0.2657-0.2595-0.4688-0.572-0.597-0.9189-0.1094-0.2813-0.2407-0.7064-0.275-1.4847-0.0376-0.8439-0.0469-1.0971-0.0469-3.2319 0-2.1348 93e-4-2.3911 0.0469-3.2318 0.0343-0.7814 0.1656-1.2034 0.275-1.4847 0.1282-0.347 0.3313-0.6626 0.6002-0.919 0.2593-0.2657 0.5719-0.4688 0.9189-0.5969C3.6007 1.666 4.0258 1.5347 4.804 1.5003 5.6479 1.4628 5.9012 1.4534 8.0359 1.4534c2.1379 0 2.391 94e-4 3.2319 0.0469 0.7814 0.0344 1.2034 0.1657 1.4847 0.2751 0.3468 0.1281 0.6626 0.3312 0.9189 0.5969 0.2656 0.2594 0.4688 0.572 0.597 0.919 0.1094 0.2813 0.2406 0.7063 0.2751 1.4847 0.0375 0.8439 0.0469 1.097 0.0469 3.2318 0 2.1348-94e-4 2.3849-0.0469 3.2288z" />
                <path d="M8.0297 3.8914c-2.2692 0-4.1102 1.8409-4.1102 4.1101 0 2.2693 1.841 4.1102 4.1102 4.1102 2.2692 0 4.1101-1.8409 4.1101-4.1102 0-2.2692-1.8409-4.1101-4.1102-4.1101zM8.0297 10.6677c-1.4721 0-2.6662-1.194-2.6662-2.6662s1.1941-2.6661 2.6662-2.6661c1.4722 0 2.6661 1.1939 2.6661 2.6661s-1.1939 2.6662-2.6661 2.6662z" />
                <path d="M13.262 3.7289c0 0.5299-0.4297 0.9595-0.9597 0.9595-0.5299 0-0.9595-0.4296-0.9595-0.9595 0-0.53 0.4296-0.9596 0.9595-0.9596 0.53 0 0.9597 0.4296 0.9597 0.9596z" />
            </g>
        </symbol>
        <symbol id="facebook" viewBox="0 0 16 16">
            <path d="M10.6647 2.6567l1.4606 0v-2.544C11.8733 0.078 11.0067 0 9.9973 0 7.8913 0 6.4487 1.3247 6.4487 3.7593l0 2.2407h-2.324l0 2.844h2.324l0 7.156H9.298V8.8447l2.23 0 0.354-2.844-2.5847 0 0-1.9594c7e-4-0.822 0.222-1.3846 1.3674-1.3846z" />
        </symbol>
        <symbol id="diagram" viewBox="0 0 64 64" fill="none">
            <g fill="var(--color1, #4d5ae5)" clip-path="url(#clip0_1065735_1558)">
                <path d="M29.851 29.9292h2.1323v9.595H29.851z" />
                <path d="M38.3799 34.1936h2.1322v5.3306h-2.1322z" />
                <path d="M21.3222 37.392h2.1322v2.1322h-2.1322z" />
                <path d="M14.9255 36.3258h2.1322v3.1983h-2.1322z" />
                <path fill="var(--color0, #2e2f42)" d="M3.1983 56.5819h51.1732c1.7663 0 3.1984-1.432 3.1984-3.1983v-4.2644c0-1.7663-1.4321-3.1984-3.1984-3.1984h-1.0661V19.3342l6.0557-5.7366c1.4055 0.6929 3.1067 0.2723 4.0265-0.9973 0.9204-1.2692 0.7913-3.0167-0.305-4.1369S60.2424 7.176 58.953 8.0677c-1.2889 0.8923-1.747 2.5836-1.0849 4.0042l-4.5627 4.3253v-2.4596c0-1.7663-1.432-3.1983-3.1983-3.1983H7.4628c-1.7663 0-3.1984 1.432-3.1984 3.1983l0 31.9832H3.1983C1.4321 45.9208 0 47.3529 0 49.1192v4.2644c0 1.7663 1.4321 3.1983 3.1983 3.1983zM60.7682 9.6731c0.5887 0 1.0661 0.4774 1.0661 1.0662 0 0.5887-0.4774 1.0661-1.0661 1.0661-0.5888 0-1.0661-0.4774-1.0661-1.0661 0-0.5888 0.4773-1.0662 1.0661-1.0662zM6.3967 13.9376c0-0.5888 0.4773-1.0661 1.0661-1.0661h42.6443c0.5887 0 1.0661 0.4773 1.0661 1.0661v4.4773l-2.1322 2.026v-4.3711c0-0.5888-0.4774-1.0661-1.0661-1.0661H9.595c-0.5888 0-1.0661 0.4773-1.0661 1.0661l0 26.6527c0 0.5888 0.4773 1.0661 1.0661 1.0661h38.3799c0.5887 0 1.0661-0.4773 1.0661-1.0661V23.3738l2.1322-2.0203v24.5673H6.3967zM15.9916 27.797c-1.4424-42e-4-2.709 0.9568-3.0926 2.3472-0.3837 1.3904 0.2103 2.8652 1.4508 3.6012 1.24 0.7361 2.8199 0.5513 3.8563-0.4518l3.7059 1.8594c0.4305 0.2155 0.9526 0.1146 1.2727-0.2452l7.8777-8.8625 7.7438 5.8027c0.4154 0.3113 0.9954 0.278 1.3722-0.0786l6.7304-6.3753v16.2623H10.6611V17.1359h36.2477v5.3207l-7.543 7.1431-7.8089-5.8542c-0.4435-0.3322-1.0677-0.2697-1.4362 0.1442l-7.9859 8.9854-2.9855-1.493c0.0219-0.1281 0.0354-0.2572 0.0407-0.3868 0-1.7662-1.4321-3.1983-3.1984-3.1983zM17.0577 30.9953c0 0.5888-0.4773 1.0661-1.0661 1.0661-0.5887 0-1.0661-0.4773-1.0661-1.0661 0-0.5887 0.4774-1.0661 1.0661-1.0661 0.5888 0 1.0661 0.4774 1.0661 1.0661zM23.4544 48.0531h10.6611v1.0661c0 0.5887-0.4774 1.0661-1.0661 1.0661h-8.5289c-0.5888 0-1.0661-0.4774-1.0661-1.0661zM2.1322 49.1192c0-0.5888 0.4774-1.0661 1.0661-1.0661h18.1239v1.0661c0 1.7662 1.432 3.1983 3.1983 3.1983h8.5289c1.7662 0 3.1983-1.4321 3.1983-3.1983v-1.0661h18.1238c0.5888 0 1.0661 0.4773 1.0661 1.0661v4.2644c0 0.5887-0.4773 1.0661-1.0661 1.0661H3.1983c-0.5887 0-1.0661-0.4774-1.0661-1.0661z" />
            </g>
            <defs>
                <clipPath id="clip0_1065735_1558">
                    <rect fill="#fff" width="64" height="64" />
                </clipPath>
            </defs>
        </symbol>
        <symbol id="clock" viewBox="0 0 64 64" fill="var(--color1, #4d5ae5)">
            <path fill="var(--color0, #2e2f42)" d="M62.5933 30.6025C62.5899 13.6978 48.8828-34e-4 31.9776 0 15.0728 34e-4 1.3716 13.7109 1.375 30.6157c3e-3 13.3159 8.6138 25.1021 21.2989 29.1524 0.121 0.0381 0.247 0.0576 0.3735 0.0571 0.2412-5e-4 0.4775-0.0649 0.685-0.1875 0.2701-0.1597 0.4717-0.4136 0.5665-0.7129l7.7299-24.5c2.1133-0.0107 3.8174-1.7329 3.8062-3.8457-0.0108-2.1133-1.7324-3.8174-3.8457-3.8066-0.5684 24e-4-1.1294 0.1333-1.6402 0.3828L20.1372 16.9419c-0.5068-0.4893-1.3139-0.4751-1.8032 0.0312-0.4775 0.4947-0.4775 1.2779 0 1.7725l10.2066 10.2183c-0.7832 1.5986-0.3355 3.5283 1.0727 4.6181l-7.3652 23.3457C7.6924 51.5659 0.2393 35.4199 5.6011 20.8643 10.9629 6.3086 27.1089-1.1445 41.6646 4.2173c14.5556 5.3618 22.0088 21.5083 16.647 36.0635-2.6197 7.1113-8.002 12.8623-14.9244 15.9467l-0.7959-3.7485c-0.1455-0.689-0.8227-1.1294-1.5117-0.9834-0.2173 0.0464-0.4189 0.1485-0.5849 0.2964l-7.6739 6.8511c-0.5263 0.4682-0.5732 1.2744-0.1045 1.8008 0.1524 0.1709 0.3477 0.2978 0.5664 0.3676l9.7974 3.127c0.6704 0.2153 1.3887-0.1533 1.604-0.8242 0.0684-0.2119 0.0796-0.4375 0.0337-0.6553l-0.7822-3.6782c11.3286-4.7759 18.6841-15.8843 18.6577-28.1783zM31.9844 29.3272c0.7041 0 1.2754 0.5712 1.2754 1.2753 0 0.7046-0.5713 1.2754-1.2754 1.2754-0.7046 0-1.2754-0.5708-1.2754-1.2754 0-0.7041 0.5708-1.2753 1.2754-1.2753zM36.1851 59.0552l4.3681-3.8965 1.2056 5.6807z" />
            <path d="M30.709 6.3701v2.5508c0 0.7046 0.5708 1.2754 1.2754 1.2754 0.7041 0 1.2754-0.5708 1.2754-1.2754V6.3701c0-0.7041-0.5713-1.2754-1.2754-1.2754-0.7046 0-1.2754 0.5713-1.2754 1.2754z" />
            <path d="M7.752 29.3271c-0.7046 0-1.2754 0.5713-1.2754 1.2754 0 0.7046 0.5708 1.2754 1.2754 1.2754h2.5508c0.7045 0 1.2753-0.5708 1.2753-1.2754 0-0.7041-0.5708-1.2754-1.2753-1.2754z" />
            <path d="M56.2163 31.8779c0.7046 0 1.2754-0.5708 1.2754-1.2754 0-0.7041-0.5708-1.2754-1.2754-1.2754h-2.5508c-0.7041 0-1.2754 0.5713-1.2754 1.2754 0 0.7046 0.5713 1.2754 1.2754 1.2754z" />
        </symbol>
        <symbol id="astronaut" viewBox="0 0 64 64" fill="var(--color1, #4d5ae5)">
            <path d="M63.9481 9.0481c-0.1259-0.3851-0.4587-0.6666-0.8608-0.7254L59.2665 7.767 57.5566 4.3046c-0.3584-0.7297-1.5541-0.7297-1.9125-1e-4L53.9342 7.767l-3.821 0.5559c-0.4021 0.0586-0.7348 0.3392-0.8618 0.7253-0.1248 0.3861-0.0214 0.8106 0.2698 1.0933l2.766 2.6956-0.6528 3.8059c-0.0683 0.4 0.096 0.8043 0.4235 1.0433 0.3318 0.2411 0.7648 0.2709 1.1243 0.081l3.4176-1.7974 3.4177 1.7974c0.1558 0.0821 0.3275 0.1226 0.4971 0.1226 0.2208 0 0.4417-0.0682 0.6273-0.2037 0.3285-0.2389 0.4928-0.6433 0.4235-1.0433l-0.6527-3.8059 2.7659-2.6956c0.2897-0.2837 0.3944-0.7073 0.2695-1.0934zM59.0223 11.702c-0.2507 0.2443-0.3659 0.5984-0.3062 0.9441l0.3819 2.2282-2.001-1.0517c-0.1558-0.0822-0.3264-0.1227-0.4972-0.1227-0.1706 0-0.3402 0.0405-0.4971 0.1227l-2.0011 1.0517 0.3818-2.2282c0.0598-0.3457-0.0555-0.6987-0.3061-0.9441l-1.6203-1.5786 2.2379-0.3254c0.3478-0.0501 0.6476-0.2687 0.8033-0.5835l1.0005-2.0267 1.0005 2.0266c0.1558 0.3146 0.4555 0.5334 0.8033 0.5835l2.2379 0.3254z" />
            <path d="M52.2669 41.0444h-2.1334v2.1334h2.1334z" />
            <path d="M52.2669 45.3112h-2.1334v2.1334h2.1334z" />
            <path d="M54.4004 43.1778h-2.1335v2.1334h2.1335z" />
            <path d="M50.1335 43.1778h-2.1333v2.1334h2.1333z" />
            <path d="M44.8001 52.778h-2.1334v2.1333h2.1334z" />
            <path d="M44.8001 57.0446h-2.1334v2.1334h2.1334z" />
            <path d="M46.9336 54.9114l-2.1335-1e-4v2.1333l2.1335 2e-4z" />
            <path d="M42.6667 54.9113l-2.1334 1e-4v2.1334l2.1334-2e-4z" />
            <path d="M32 48.5113h-2.1334v2.1334H32z" />
            <path d="M32 52.778h-2.1334v2.1333H32z" />
            <path d="M34.1334 50.6445 32 50.6447v2.1333l2.1334-1e-4z" />
            <path d="M29.8666 50.6447l-2.1334-2e-4v2.1334l2.1334 1e-4z" />
            <path d="M11.733 12.244H9.5996l0 2.1334h2.1334z" />
            <path d="M11.733 16.5107H9.5996l0 2.1335h2.1334z" />
            <path d="M13.8663 14.3774H11.733v2.1333l2.1333 1e-4z" />
            <path d="M9.5996 14.3774H7.4662l0 2.1334 2.1334-1e-4z" />
            <path fill="var(--color0, #2e2f42)" d="M49.4295 28.3189c-0.5749-0.7755-1.4186-1.2746-2.3765-1.4091-0.9622-0.1365-1.9116 0.1162-2.6796 0.704l-2.5035 1.9189-11e-4 11e-4-3.7954 2.8342-2.7157-1.0817c4.8427-2.1728 8.2273-7.0166 8.2273-12.6402 0-7.646-6.2454-13.8668-13.9223-13.8668s-13.9222 6.2208-13.9222 13.8668c0 2.7713 0.8287 5.3484 2.24 7.5169l-5.5276-0.048c-32e-4 0-64e-4 0-96e-4 0-0.0171 0-0.0309 85e-4-0.0469 96e-4-0.1056 43e-4-0.2091 0.0257-0.3104 0.0619-0.0256 96e-4-0.0522 0.015-0.0767 0.0266-0.0128 54e-4-0.0256 64e-4-0.0384 0.0128l-6.4662 3.1925c-11e-4 0-21e-4 0-21e-4 1e-3l-3.7868 1.8211c-0.0417 0.0181-0.0843 0.0426-0.1259 0.0703-1.5094 1.0048-2.0236 2.9782-1.1968 4.591 0.4405 0.8576 1.1904 1.4891 2.112 1.7781 0.3553 0.1109 0.7179 0.1654 1.0784 0.1654 0.5793 0 1.1532-0.1419 1.6789-0.4224l2.7756-1.4762 4.528-2.3382 2.7137-0.016L4.3963 44.4237c-1e-3 11e-4-21e-4 11e-4-33e-4 21e-4l-2.6774 2.6666c-0.6325 0.6294-0.9802 1.4646-0.9802 2.3553 0 0.8897 0.3477 1.7269 0.9802 2.3574 0.6497 0.6464 1.5041 0.9707 2.3584 0.9707 0.8556 0 1.7088-0.3243 2.3606-0.9707l2.6283-2.6176 3.4816-2.5996 1.8017 1.7942-3.5233 3.5083c-1e-3 11e-4-21e-4 11e-4-33e-4 21e-4l-2.6774 2.6667c-0.6325 0.6294-0.9802 1.4645-0.9802 2.3553 0 0.8896 0.3477 1.7269 0.9802 2.3574 0.6497 0.6464 1.5052 0.9706 2.3596 0.9706 0.8544 0 1.7099-0.3242 2.3605-0.9706l6.9632-6.9334c12e-4-11e-4 12e-4-21e-4 22e-4-32e-4l2.0192-2.0001-75e-4-75e-4c0.0128-0.0127 0.0309-0.0171 0.0438-0.0308l10.3319-11.3165 6.942 0.9878c0.0501 75e-4 0.1002 0.0106 0.1504 0.0106 0.1291 0 0.2538-0.0308 0.3744-0.0767 0.0352-0.0128 0.0661-0.0299 0.0992-0.0469 0.0384-0.0192 0.0789-0.0299 0.1153-0.0544l6.4267-4.2667c0.0235-0.016 0.0362-0.0416 0.0586-0.0586 0.0256-0.0202 0.0576-0.0287 0.081-0.0512l2.5429-2.3819c1.3232-1.2398 1.5055-3.2707 0.4239-4.7235zM4.2608 35.5403c-0.3466 0.1856-0.7403 0.2228-1.1168 0.1035-0.3734-0.1163-0.6762-0.3713-0.8534-0.7158-0.3221-0.6272-0.1355-1.391 0.4288-1.8038l2.6273-1.264 0.8981 2.6251zM11.255 31.8848 8.1585 33.4849 7.2807 30.9183l4.0535-2.0011zM41.4539 18.644c0 1.8368-0.4384 3.5692-1.1979 5.119l-8.3628-3.7985c-0.0875-1.1466-0.6826-2.1504-1.5765-2.7755l2.928-9.7207c4.7554 1.5127 8.2092 5.949 8.2092 11.1757zM17.876 18.644c0-6.4695 5.2886-11.7336 11.7889-11.7336 0.5057-1e-4 1.0006 0.0426 1.4902 0.1045l-2.8641 9.5074c-0.0383-12e-4-0.0746-0.0118-0.1141-0.0118-2.0651 0-3.7452 1.6747-3.7452 3.7334s1.6801 3.7335 3.7452 3.7335c1.3888 0 2.5888-0.7669 3.2363-1.8892l7.7249 3.5094c-2.1494 2.8928-5.5895 4.7799-9.4733 4.7799-6.5002 0-11.7888-5.2641-11.7888-11.7336zM29.7887 20.244c0 0.8822-0.7233 1.6001-1.6118 1.6001s-1.6118-0.7179-1.6118-1.6001c0-0.8821 0.7233-1.6 1.6118-1.6s1.6118 0.7179 1.6118 1.6zM4.9297 50.2925c-0.4725 0.4683-1.2374 0.4673-1.7088 11e-4-0.2273-0.2272-0.352-0.5269-0.352-0.8459 0-0.3178 0.1248-0.6176 0.352-0.8426l1.9242-1.9169 1.7024 1.695zM11.3574 57.7594c-0.4725 0.4682-1.2384 0.4693-1.7099 11e-4-0.2273-0.2273-0.352-0.5269-0.352-0.8459 0-0.3179 0.1247-0.6176 0.352-0.8426l1.9254-1.9179 1.7035 1.695zM18.3208 50.8216c-12e-4 1e-3-22e-4 1e-3-33e-4 22e-4l-3.5297 3.52-1.7035-1.695 3.5264-3.5104c0 0 0 0 0-1e-3 12e-4-12e-4 22e-4-12e-4 33e-4-22e-4 0.08-0.08 0.1301-0.176 0.1792-0.2709 0.0139-0.0277 0.0405-0.0512 0.0523-0.08 0.0331-0.0821 0.0384-0.1706 0.0512-0.2571 64e-4-0.0491 0.0278-0.0949 0.0278-0.1451 0-0.0715-0.0256-0.1408-0.0405-0.2113-0.0128-0.064-0.0128-0.1291-0.0374-0.1908-0.0405-0.1003-0.1099-0.1888-0.1824-0.2753-0.0202-0.0235-0.0277-0.0534-0.0501-0.0757 0 0 0 0-11e-4 0-11e-4-1e-3-11e-4-33e-4-21e-4-43e-4l-3.214-3.2c-0.0341-0.0342-0.0778-0.048-0.1162-0.0768-0.0565-0.0437-0.1109-0.0842-0.1739-0.1152-0.0607-0.0299-0.1226-0.048-0.1866-0.0652-0.0683-0.0192-0.1344-0.0341-0.2059-0.0395-0.0651-42e-4-0.1259 22e-4-0.1909 97e-4-0.0715 85e-4-0.1386 0.0181-0.208 0.0405-0.0672 0.0213-0.1269 0.0543-0.1887 0.0896-0.0395 0.0224-0.0843 0.0299-0.1217 0.0576l-3.5466 2.6475-1.8017-1.7941 4.798-4.7723 8.7212 8.5772zM31.9584 36.7883c-0.0309-43e-4-0.0598 75e-4-0.0907 54e-4-0.0779-43e-4-0.1525 11e-4-0.2304 0.0138-0.0607 0.0107-0.1183 0.0224-0.176 0.0427-0.0682 0.0235-0.1301 0.0555-0.1931 0.0938-0.0597 0.0363-0.1141 0.0747-0.1664 0.1227-0.0256 0.0223-0.0565 0.0331-0.08 0.0586l-9.3965 10.2914-8.6561-8.5133 5.6662-5.6363c0.4171-0.416 0.4192-1.0913 32e-4-1.5094-0.2101-0.2101-0.4863-0.3136-0.7626-0.3125l-4.4374 0.0256 0.0555-3.2149 6.2081 0.0534c2.5301 2.5878 6.0587 4.2017 9.9627 4.2017 0.8747 0 1.7281-0.0907 2.559-0.2454 0.08 0.064 0.1588 0.1291 0.2592 0.1696l4.8193 1.9201 0.6613 3.2874zM40.0406 37.1445l-0.6261-3.1158 2.8928-2.16 1.8934 2.5131zM47.5478 31.4826l-1.6757 1.5701-1.8624-2.4725 1.6629-1.2747c0.3103-0.2388 0.7019-0.336 1.0859-0.2858 0.3861 0.0543 0.7275 0.256 0.96 0.5685 0.4331 0.5835 0.3595 1.3974-0.1707 1.8944z" />
            <path fill="var(--color0, #2e2f42)" d="M27.2041 37.0881l-4.2859-4.2667c-0.4149-0.4149-1.0892-0.4149-1.5052 0l-4.2848 4.2667c-0.2005 0.2016-0.3136 0.4725-0.3136 0.7563 0 0.2837 0.112 0.5557 0.3136 0.7562l4.2848 4.2667c0.208 0.2069 0.4812 0.3104 0.7532 0.3104s0.545-0.1035 0.752-0.3104l4.2859-4.2667c0.2005-0.2005 0.3146-0.4725 0.3146-0.7562 0-0.2838-0.1131-0.5558-0.3146-0.7563zM22.1662 40.606l-2.7735-2.7616 2.7735-2.7617 2.7744 2.7617z" />
            <path fill="var(--color0, #2e2f42)" d="M34.3285 10.1415l-0.5153 2.0716c0.1419 0.0352 3.4753 0.9035 3.4753 4.2977h2.1334c-1e-4-4.0343-3.3313-5.9309-5.0934-6.3693z" />
            <path fill="var(--color0, #2e2f42)" d="M39.422 18.644h-2.1334v2.1335h2.1334z" />
        </symbol>
        <symbol id="antena" viewBox="0 0 64 64" fill="none">
            <path fill="var(--color0, #2e2f42)" d="M61.5463 44.1952 44.6599 27.1851l1.8741-9.231c0.4836 0.1888 0.9978 0.2875 1.5168 0.2912h0.0128c2.3846 0.0282 4.3404-1.882 4.3687-4.2665s-1.882-4.3404-4.2665-4.3687c-2.3846-0.0281-4.3404 1.882-4.3687 4.2666-6e-3 0.5102 0.0784 1.0174 0.2495 1.4982l-9.92 1.2107L17.9452 0.32C17.7467 0.1175 17.4757 23e-4 17.1921 0c-0.28 15e-4-0.5481 0.1129-0.7466 0.3104l-3.0251 3.008c-0.4164 0.4165-0.4164 1.0917 0 1.5083l1.6277 1.6512c-6.3061 11.5958-4.2578 25.9556 5.039 35.3258 0.0853 0.0816 0.1842 0.1476 0.2922 0.1952-0.0672 0.361-0.1022 0.7272-0.1045 1.0944v12.3734h-12.8C4.5308 55.4701 2.145 57.856 2.1415 60.8l0 2.1333C2.1415 63.5224 2.6191 64 3.2082 64h49.0666c0.5891 0 1.0667-0.4776 1.0667-1.0667V60.8c-35e-4-2.944-2.3893-5.3299-5.3333-5.3333h-12.8v-5.4838c2.0052 0.4206 4.0482 0.635 6.097 0.64 4.9163-53e-4 9.7543-1.2309 14.08-3.5669l1.6363 1.6459c0.1985 0.2025 0.4695 0.3177 0.7531 0.32 0.28-15e-4 0.5481-0.113 0.7466-0.3104l3.0251-3.008c0.4164-0.4166 0.4164-1.0918 0-1.5083zM46.5596 12.4661c0.8354-0.8309 2.1862-0.8272 3.017 82e-4 0.8309 0.8353 0.8272 2.1861-82e-4 3.0169-0.3998 0.3977-0.9409 0.6209-1.5049 0.6208h-64e-4c-1.1781-61e-4-2.1284-0.9661-2.1223-2.1444 3e-3-0.564 0.2291-1.1037 0.629-1.5015zM44.0487 19.4752l-1.1968 5.8912-2.351-2.3648zM42.837 17.6715l-3.84 3.8176-2.9707-2.9867zM48.0082 57.6c1.7673 0 3.2 1.4327 3.2 3.2v1.0667H4.2748l0-1.0667c0-1.7673 1.4327-3.2 3.2-3.2zM33.0748 53.3333v2.1334H22.4081v-2.1334zM22.4081 51.2v-8.1067c0-2.5877 2.3926-4.6933 5.3334-4.6933s5.3333 2.1056 5.3333 4.6933V51.2zM35.2082 47.808v-4.7147c0-3.7642-3.3494-6.8266-7.4667-6.8266-2.6622-0.0408-5.1515 1.3142-6.5622 3.5722-8.1154-8.5476-9.9429-21.2904-4.5572-31.7742l37.2037 37.4169c-5.7448 2.9224-12.3303 3.7452-18.6176 2.3264zM57.7863 46.4405 17.1815 5.5915 15.6721 4.0789l1.5094-1.504 15.8698 15.9595c75e-4 0 0.0118 0.0139 0.0193 0.0192l26.2293 26.3829z" />
            <path fill="var(--color1, #4d5ae5)" d="M27.7511 40.5333h-96e-4c-1.7673-26e-4-3.2021 1.4279-3.2048 3.1952-27e-4 1.7674 1.4279 3.2022 3.1952 3.2048h96e-4c1.7673 27e-4 3.2021-1.4278 3.2048-3.1952 26e-4-1.7673-1.4279-3.2021-3.1952-3.2048zM28.4978 44.4896c-0.2008 0.1997-0.473 0.3115-0.7563 0.3104-0.5891-31e-4-1.0641-0.4831-1.0611-1.0721 15e-4-0.282 0.1146-0.5519 0.3144-0.7508 0.1986-0.1975 0.4667-0.309 0.7467-0.3104 0.5891 3e-3 1.0641 0.483 1.0611 1.0721-15e-4 0.282-0.1146 0.5519-0.3144 0.7508z" />
        </symbol>
    </defs>
</svg>